<?xml version="1.0" encoding="UTF-8"?>
<svg xmlns="http://www.w3.org/2000/svg" viewBox="-100 -100 650 650">
  <defs>
    <style>
      .cls-1 {
        fill: #f0f0f0;
      }

      .cls-2, .cls-3 {
        fill: #fff;
      }

      .cls-4 {
        fill: #37474f;
      }

      .cls-5 {
        opacity: .6;
      }

      .cls-6 {
        fill: #f5f5f5;
      }

      .cls-7 {
        fill: #455a64;
      }

      .cls-8 {
        stroke-dasharray: 0 0 13.31 13.31;
      }

      .cls-8, .cls-9, .cls-10, .cls-11, .cls-12, .cls-13, .cls-14, .cls-15 {
        fill: none;
        stroke: #455a64;
        stroke-linecap: round;
        stroke-linejoin: round;
        stroke-width: 2.36px;
      }

      .cls-16 {
        opacity: .2;
      }

      .cls-17 {
        fill: #00437D;
      }

      .cls-9 {
        stroke-dasharray: 0 0 10.73 10.73;
      }

      .cls-3 {
        opacity: .5;
      }

      .cls-18 {
        fill: #e0e0e0;
      }

      .cls-19 {
        fill: #e6e6e6;
      }

      .cls-11 {
        stroke-dasharray: 0 0 11.06 11.06;
      }

      .cls-20 {
        fill: #337AB7;
      }

      .cls-21 {
        opacity: .1;
      }

      .cls-12 {
        stroke-dasharray: 0 0 10.99 10.99;
      }

      .cls-22 {
        fill: #ebebeb;
      }

      .cls-13 {
        stroke-dasharray: 0 0 11.01 11.01;
      }

      .cls-14 {
        stroke-dasharray: 0 0 10.89 10.89;
      }

      .cls-15 {
        stroke-dasharray: 0 0 7.18 7.18;
      }

      .cls-23 {
        fill: #D6E4F1;
      }
    </style>
  </defs>
  <g id="Floor">
    <path id="Floor-2" data-name="Floor" class="cls-6" d="m66.29,391.82c-88.38-44.35-88.38-116.25,0-160.6,88.38-44.35,231.67-44.35,320.05,0,88.38,44.35,88.38,116.25,0,160.6-88.38,44.35-231.67,44.35-320.05,0Z"/>
  </g>
  <g id="Shadows">
    <ellipse id="Shadow" class="cls-19" cx="345.74" cy="330.76" rx="61.17" ry="35.32"/>
    <path id="Shadow-2" data-name="Shadow" class="cls-19" d="m258.41,313.41c6.62,3.82,6.62,10.02,0,13.85-6.62,3.82-17.36,3.82-23.98,0-6.62-3.82-6.62-10.02,0-13.85,6.62-3.82,17.36-3.82,23.98,0Z"/>
    <g id="Shadow-3" data-name="Shadow">
      <polygon class="cls-18" points="53.01 129.6 53.01 145.77 91.77 123.39 91.77 145.77 125.15 126.5 125.15 110.33 108.46 119.96 108.46 113.76 185.98 69 185.98 75.21 169.29 84.85 169.29 123.39 185.98 113.76 185.98 119.96 169.29 129.6 169.29 148.87 163.91 151.98 163.91 87.95 130.53 107.22 130.53 129.6 86.39 155.08 86.39 132.7 53.01 151.98 53.01 302.41 86.39 283.13 86.39 238.38 105.77 227.19 105.77 211.02 72.39 230.3 72.39 271.95 67.02 275.05 67.02 207.92 72.39 204.82 72.39 224.09 111.15 201.71 111.15 230.3 91.77 241.48 91.77 280.03 108.46 270.39 108.46 276.6 47.64 311.72 47.64 126.5 108.46 91.38 108.46 97.59 53.01 129.6"/>
      <polygon class="cls-18" points="208.04 219.11 144.53 255.78 144.53 233.4 108.46 254.22 108.46 248.02 125.15 238.38 125.15 177.46 86.39 199.83 86.39 177.46 67.02 188.65 67.02 163.17 72.39 160.06 72.39 179.34 144.53 137.69 144.53 118.41 149.91 115.31 149.91 179.34 183.29 160.06 183.29 140.79 188.67 137.69 188.67 207.92 166.6 220.66 166.6 214.45 183.29 204.82 183.29 166.27 144.53 188.65 144.53 143.89 91.77 174.35 91.77 190.52 130.53 168.15 130.53 235.28 144.53 227.19 144.53 204.82 166.6 192.08 166.6 198.28 149.91 207.92 149.91 246.47 202.67 216 202.67 87.95 185.98 97.59 185.98 91.38 202.67 81.74 202.67 43.2 147.22 75.21 147.22 69 208.04 33.89 208.04 219.11"/>
    </g>
  </g>
  <g id="Labyrinth">
    <g id="Labyrinth-2" data-name="Labyrinth">
      <g>
        <path class="cls-20" d="m110.02,92.28l-60.82,35.12v185.22s7.14,4.12,7.14,4.12l60.82-35.12v-6.21l-7.14-4.12-9.56,5.52v-30.31s19.38-11.19,19.38-11.19v-28.58s-7.14-4.12-7.14-4.12l-31.62,18.26v-11.03s-7.14-4.12-7.14-4.12l-5.38,3.1v67.13l7.14,4.12,5.38-3.1v-41.65l26.25-15.15v7.93s-19.38,11.19-19.38,11.19v44.75s-26.25,15.15-26.25,15.15v-142.19l26.25-15.15v14.14l7.14,4.12,44.13-25.48v-22.38s26.25-15.15,26.25-15.15v55.79s7.14,4.12,7.14,4.12l5.38-3.1v-19.27s16.69-9.64,16.69-9.64v-6.21s-7.14-4.12-7.14-4.12l-9.56,5.52v-30.31s16.69-9.64,16.69-9.64v-6.21l-7.14-4.12-77.52,44.75v6.21l7.14,4.12,9.56-5.52v7.93s-26.25,15.15-26.25,15.15v-14.14s-7.14-4.12-7.14-4.12l-31.62,18.26v-7.93l55.45-32.01v-6.21s-7.14-4.12-7.14-4.12Z"/>
        <path class="cls-20" d="m216.74,38.91l-7.14-4.12-60.82,35.12v6.21s7.14,4.12,7.14,4.12l48.31-27.89v30.31l-16.69,9.64v6.21s7.14,4.12,7.14,4.12l9.56-5.52v119.82s-45.63,26.34-45.63,26.34v-30.31s16.69-9.64,16.69-9.64v-6.21s-7.14-4.12-7.14-4.12l-22.07,12.74v22.38s-6.87,3.97-6.87,3.97v-58.89l-7.14-4.12-31.62,18.26v-7.93l45.63-26.34v36.51s7.14,4.12,7.14,4.12l31.62-18.26v30.31l-16.69,9.64v6.21l7.14,4.12,22.07-12.74v-70.23l-7.14-4.12-5.38,3.1v19.27s-26.25,15.15-26.25,15.15v-55.79s-7.14-4.12-7.14-4.12l-5.38,3.1v19.27l-65,37.53v-11.03l-7.14-4.12-5.38,3.1v25.48l7.14,4.12,12.24-7.07v14.14s7.14,4.12,7.14,4.12l31.62-18.26v52.68s-16.69,9.64-16.69,9.64v6.21s7.14,4.12,7.14,4.12l28.93-16.71v14.14l7.14,4.12,63.51-36.67V38.91Z"/>
      </g>
      <g class="cls-21">
        <polygon points="117.15 96.4 110.02 92.28 49.19 127.4 56.33 131.52 117.15 96.4"/>
        <polygon points="155.91 74.02 148.78 69.9 209.6 34.79 216.74 38.91 155.91 74.02"/>
        <polygon points="100.46 128.41 93.33 124.29 61.71 142.55 61.71 150.79 100.46 128.41"/>
        <polygon points="126.71 127.4 133.85 131.52 100.46 150.79 100.46 142.55 126.71 127.4"/>
        <polygon points="194.67 74.02 187.54 69.9 110.02 114.66 117.15 118.78 194.67 74.02"/>
        <polygon points="194.67 96.4 211.36 86.76 204.23 82.64 187.54 92.28 194.67 96.4"/>
        <polygon points="194.67 118.78 187.54 114.66 178.01 120.13 177.98 128.41 194.67 118.78"/>
        <polygon points="153.23 123.43 146.09 119.31 151.46 116.21 158.6 120.33 153.23 123.43"/>
        <polygon points="146.09 138.59 81.08 176.12 81.08 184.35 153.23 142.7 146.09 138.59"/>
        <polygon points="81.08 165.08 75.71 168.18 68.57 164.07 73.95 160.96 81.08 165.08"/>
        <polygon points="75.71 212.94 81.08 209.84 73.95 205.72 68.57 208.82 75.71 212.94"/>
        <polygon points="95.09 288.15 87.95 284.03 61.71 299.19 61.71 307.43 95.09 288.15"/>
        <polygon points="117.15 275.41 110.02 271.3 100.46 276.81 100.46 285.05 117.15 275.41"/>
        <polygon points="107.33 228.09 114.47 232.21 95.09 243.4 87.95 239.28 107.33 228.09"/>
        <polygon points="119.84 206.73 81.08 229.11 81.08 220.87 112.71 202.61 119.84 206.73"/>
        <polygon points="100.46 195.54 139.22 173.17 132.09 169.05 100.46 187.3 100.46 195.54"/>
        <polygon points="110.02 248.92 126.71 239.28 133.85 243.4 117.15 253.04 110.02 248.92"/>
        <polygon points="146.09 228.09 153.23 232.21 139.22 240.3 139.22 232.06 146.09 228.09"/>
        <polygon points="146.09 205.72 168.16 192.98 175.29 197.09 153.23 209.83 146.09 205.72"/>
        <polygon points="158.6 251.49 211.36 221.02 204.23 216.9 158.6 243.25 158.6 251.49"/>
        <polygon points="191.98 209.83 175.29 219.47 168.16 215.35 184.85 205.72 191.98 209.83"/>
        <polygon points="191.98 165.08 158.6 184.35 158.6 176.12 184.85 160.96 191.98 165.08"/>
      </g>
      <g class="cls-16">
        <polygon points="56.33 316.74 56.33 131.52 49.19 127.4 49.19 312.62 56.33 316.74"/>
        <polygon points="155.91 80.23 155.91 74.02 148.78 69.9 148.78 76.11 155.91 80.23"/>
        <polygon points="133.85 131.52 133.85 115.35 126.71 119.47 126.71 127.4 133.85 131.52"/>
        <polygon points="117.15 124.98 117.15 118.78 110.02 114.66 110.02 120.86 117.15 124.98"/>
        <polygon points="211.36 86.76 204.23 82.64 204.23 52.34 211.36 48.22 211.36 86.76"/>
        <polygon points="194.67 102.61 194.67 96.4 187.54 92.28 187.54 98.49 194.67 102.61"/>
        <polygon points="172.6 157 165.47 152.88 165.47 97.09 172.6 92.97 172.6 157"/>
        <polygon points="153.23 142.7 153.23 123.43 146.09 119.31 146.09 138.59 153.23 142.7"/>
        <polygon points="75.71 193.67 75.71 168.18 68.57 164.07 68.57 189.55 75.71 193.67"/>
        <polygon points="153.23 148.91 146.09 153.03 146.09 189.55 153.23 193.67 153.23 148.91"/>
        <polygon points="95.09 160.1 95.09 137.72 87.95 141.84 87.95 155.98 95.09 160.1"/>
        <polygon points="75.71 280.07 75.71 212.94 68.57 208.82 68.57 275.95 75.71 280.07"/>
        <polygon points="95.09 288.15 95.09 243.4 87.95 239.28 87.95 284.03 95.09 288.15"/>
        <polygon points="114.47 232.21 114.47 216.04 107.33 220.16 107.33 228.09 114.47 232.21"/>
        <polygon points="95.09 204.85 95.09 182.48 87.95 186.6 87.95 200.73 95.09 204.85"/>
        <polygon points="126.71 186.6 133.85 182.48 133.85 243.4 126.71 239.28 126.71 186.6"/>
        <polygon points="117.15 259.24 110.02 255.12 110.02 248.92 117.15 253.04 117.15 259.24"/>
        <polygon points="153.23 232.21 153.23 209.83 146.09 205.72 146.09 228.09 153.23 232.21"/>
        <polygon points="153.23 260.8 153.23 238.42 146.09 242.54 146.09 256.68 153.23 260.8"/>
        <polygon points="211.36 221.02 211.36 92.97 204.23 97.09 204.23 216.9 211.36 221.02"/>
        <polygon points="175.29 225.68 175.29 219.47 168.16 215.35 168.16 221.56 175.29 225.68"/>
        <polygon points="191.98 209.83 191.98 171.29 184.85 175.41 184.85 205.72 191.98 209.83"/>
        <polygon points="191.98 165.08 191.98 145.81 184.85 141.69 184.85 160.96 191.98 165.08"/>
      </g>
      <g>
        <polygon class="cls-20" points="61.71 134.62 61.71 150.79 100.46 128.41 100.46 150.79 133.85 131.52 133.85 115.35 117.15 124.98 117.15 118.78 194.67 74.02 194.67 80.23 177.98 89.87 177.98 128.41 194.67 118.78 194.67 124.98 177.98 134.62 177.98 153.89 172.6 157 172.6 92.97 139.22 112.24 139.22 134.62 95.09 160.1 95.09 137.72 61.71 157 61.71 307.43 95.09 288.15 95.09 243.4 114.47 232.21 114.47 216.04 81.08 235.32 81.08 276.97 75.71 280.07 75.71 212.94 81.08 209.84 81.08 229.11 119.84 206.73 119.84 235.32 100.46 246.5 100.46 285.05 117.15 275.41 117.15 281.62 56.33 316.74 56.33 131.52 117.15 96.4 117.15 102.61 61.71 134.62"/>
        <polygon class="cls-20" points="216.74 224.13 153.23 260.8 153.23 238.42 117.15 259.24 117.15 253.04 133.85 243.4 133.85 182.48 95.09 204.85 95.09 182.48 75.71 193.67 75.71 168.18 81.08 165.08 81.08 184.35 153.23 142.7 153.23 123.43 158.6 120.33 158.6 184.35 191.98 165.08 191.98 145.81 197.36 142.7 197.36 212.94 175.29 225.68 175.29 219.47 191.98 209.83 191.98 171.29 153.23 193.67 153.23 148.91 100.46 179.37 100.46 195.54 139.22 173.17 139.22 240.3 153.23 232.21 153.23 209.83 175.29 197.09 175.29 203.3 158.6 212.94 158.6 251.49 211.36 221.02 211.36 92.97 194.67 102.61 194.67 96.4 211.36 86.76 211.36 48.22 155.91 80.23 155.91 74.02 216.74 38.91 216.74 224.13"/>
      </g>
    </g>
  </g>
  <g id="Line">
    <g id="Line-2" data-name="Line">
      <g>
        <line class="cls-10" x1="132.83" y1="272.79" x2="132.83" y2="266.91"/>
        <polyline class="cls-10" points="132.83 260.11 132.83 254.22 127.73 257.16"/>
        <line class="cls-15" x1="121.51" y1="260.75" x2="112.17" y2="266.14"/>
        <polyline class="cls-10" points="109.06 267.94 103.96 270.88 103.96 264.99"/>
        <polyline class="cls-10" points="103.96 254.18 103.96 248.29 109.06 245.34"/>
        <polyline class="cls-10" points="117.36 240.55 122.46 237.61 122.46 231.72"/>
        <line class="cls-14" x1="122.46" y1="220.83" x2="122.46" y2="204.5"/>
        <polyline class="cls-10" points="122.46 199.06 122.46 193.17 117.36 196.11"/>
        <line class="cls-9" x1="108.07" y1="201.48" x2="94.13" y2="209.53"/>
        <polyline class="cls-10" points="89.48 212.21 84.38 215.16 84.38 209.27"/>
        <polyline class="cls-10" points="84.38 198.35 84.38 192.46 79.28 195.41"/>
        <polyline class="cls-10" points="69.83 200.86 64.73 203.81 64.73 197.92"/>
        <line class="cls-12" x1="64.73" y1="186.93" x2="64.73" y2="170.44"/>
        <polyline class="cls-10" points="64.73 164.94 64.73 159.06 69.83 156.11"/>
        <polyline class="cls-10" points="79.28 150.66 84.38 147.71 84.38 153.6"/>
        <polyline class="cls-10" points="84.38 164.2 84.38 170.09 89.48 167.14"/>
        <line class="cls-13" x1="99.01" y1="161.64" x2="132.37" y2="142.38"/>
        <polyline class="cls-10" points="137.14 139.63 142.24 136.68 142.24 130.79"/>
        <polyline class="cls-10" points="142.24 120.2 142.24 114.31 147.34 111.36"/>
        <polyline class="cls-10" points="156.91 105.83 162.01 102.89 162.01 108.78"/>
        <line class="cls-11" x1="162.01" y1="119.84" x2="162.01" y2="158.55"/>
        <polyline class="cls-10" points="162.01 164.08 162.01 169.97 167.12 167.02"/>
        <polyline class="cls-10" points="176.18 161.79 181.28 158.85 181.28 152.96"/>
        <polyline class="cls-10" points="181.28 142.41 181.28 136.52 186.38 133.58"/>
        <polyline class="cls-10" points="195.55 128.28 200.65 125.33 200.65 119.44"/>
        <polyline class="cls-10" points="200.65 108.85 200.65 102.96 195.55 105.9"/>
        <polyline class="cls-10" points="186.38 111.2 181.28 114.15 181.28 108.26"/>
        <polyline class="cls-10" points="181.28 97.66 181.28 91.77 186.38 88.82"/>
        <polyline class="cls-10" points="195.55 83.53 200.65 80.58 200.65 74.69"/>
        <polyline class="cls-10" points="200.65 64.42 200.65 58.53 195.55 61.47"/>
        <line class="cls-8" x1="184.03" y1="68.13" x2="143.69" y2="91.42"/>
        <polyline class="cls-10" points="137.93 94.74 132.83 97.69 132.83 91.8"/>
        <line class="cls-10" x1="132.83" y1="80.95" x2="132.83" y2="75.06"/>
      </g>
    </g>
  </g>
  <g id="Icons">
    <g id="Idea_icon" data-name="Idea icon">
      <g>
        <path class="cls-18" d="m127.13,26.82c-5.75,3.32-10.42,12.23-10.42,19.91,0,11.03,6.82,8.92,6.82,13.36,0,.71.35,1.21,1.05,1.35,1.4.27,3.68-1.04,5.08-2.93.7-.95,1.05-1.86,1.05-2.56h0c0-4.44,6.82-10.22,6.82-21.24,0-7.67-4.66-11.2-10.42-7.88Zm6.02,14.71c-.5,1-1.35,1.91-2.4,2.32-.23.86-.45,1.87-.64,3.05-.92,5.52-.86,9.82-.86,9.86,0,.31-.18.68-.42.83,0,0,0,0,0,0-.23.13-.42,0-.43-.31,0-.18-.06-4.49.89-10.17.18-1.1.4-2.12.63-3.05-.35.04-.72.01-1.1-.08-.68-.17-1.24-.49-1.68-.92-.44.93-1,1.91-1.68,2.86-.38.53-.75.98-1.1,1.35.24.65.45,1.43.63,2.32.95,4.59.89,8.96.89,9.14,0,.32-.19.65-.44.81-.24.13-.43-.02-.42-.34,0-.04.05-4.41-.86-8.86-.2-.95-.41-1.71-.64-2.31-1.05.81-1.9.87-2.4.45-.5-.43-.57-1.33-.18-2.26.29-.7.72-1.19,1.17-1.33.68-.21,1.34.33,1.91,1.52.31-.32.65-.72,1-1.21.68-.95,1.21-1.9,1.6-2.77-.59-.87-.8-1.93-.63-2.86.15-.8.58-1.48,1.16-1.81.57-.33,1-.15,1.16.47.18.72-.04,2.04-.63,3.58.4.41.93.75,1.6.91.35.09.68.1,1,.06.57-1.84,1.23-3.15,1.91-3.72.45-.37.88-.39,1.17-.02.38.48.31,1.47-.18,2.47Z"/>
        <path class="cls-18" d="m130.84,57.33v3.53c0,.73-.36,1.67-1.09,2.65-1.44,1.94-3.8,3.3-5.24,3.02-.76-.14-1.11-.71-1.07-1.49v-3.18c.08.59.45,1.01,1.07,1.13,1.44.28,3.8-1.08,5.24-3.02.73-.98,1.09-1.91,1.09-2.65Z"/>
      </g>
      <g>
        <g>
          <path class="cls-4" d="m132.31,58.23c0,.74-.36,1.67-1.09,2.65-1.18,1.59-2.96,2.78-4.36,3.02l-1.95-1.13v3.18c-.03.59.17,1.05.58,1.31.14.09,3.24,1.87,3.68,2.12.13.07.28.13.45.16,1.44.28,3.8-1.08,5.24-3.02.73-.98,1.09-1.92,1.09-2.65v-3.53l-3.64-2.1Z"/>
          <path class="cls-7" d="m125.49,67.25c.14.09,3.24,1.87,3.68,2.12.13.07.28.13.45.16.15.03.31.03.47.02l-1.55-1.52v-3.18l-1.69-.97s0,0,0,0l-1.95-1.13v3.18c-.03.59.17,1.05.58,1.31Z"/>
          <path class="cls-7" d="m135.42,27.17c-1.83-1.05-4.21-.96-6.81.55-5.75,3.32-10.42,12.23-10.42,19.91,0,11.03,6.82,8.92,6.82,13.36,0,.53.2.94.59,1.18.13.08,3.25,1.87,3.65,2.1.13.08.29.13.46.17,1.4.27,3.68-1.04,5.08-2.93.7-.95,1.05-1.86,1.05-2.56,0-4.44,6.82-10.22,6.82-21.24,0-4.19-1.39-7.15-3.6-8.42-.61-.35-3.03-1.75-3.65-2.1Z"/>
        </g>
        <g>
          <g>
            <path class="cls-20" d="m137.36,43.26c-.29.24-.73,1.03-1.19,2.41.61-.31,1.1-.85,1.38-1.41.08-.16.33-.72.12-.98-.12-.15-.22-.1-.31-.03Z"/>
            <path class="cls-20" d="m132.16,42.06c-.22.13-.29.29-.33.5-.09.48.01,1.1.33,1.69.32-.95.42-1.7.33-2.07-.04-.16-.11-.24-.33-.12Z"/>
            <path class="cls-20" d="m126.95,49.27s-.04.01-.06.03c-.07.04-.15.13-.25.36-.21.5.04.77.12.84.28.24.76.22,1.38-.18-.46-.86-.9-1.13-1.19-1.04Z"/>
            <path class="cls-20" d="m132.25,29.82c-5.75,3.32-10.42,12.23-10.42,19.91,0,11.03,6.82,8.92,6.82,13.36,0,.71.35,1.21,1.05,1.35,1.4.27,3.68-1.04,5.08-2.93.7-.95,1.05-1.86,1.05-2.56h0c0-4.44,6.82-10.22,6.82-21.24,0-7.67-4.66-11.2-10.42-7.88Zm6.02,14.71c-.5,1-1.35,1.91-2.4,2.32-.23.86-.45,1.87-.64,3.05-.92,5.52-.86,9.82-.86,9.86,0,.31-.18.68-.42.83,0,0,0,0,0,0-.23.13-.42,0-.43-.31,0-.18-.06-4.49.89-10.17.18-1.1.4-2.12.63-3.05-.35.04-.72.01-1.1-.08-.68-.17-1.24-.49-1.68-.92-.44.93-1,1.91-1.68,2.86-.38.53-.75.98-1.1,1.35.24.65.45,1.43.63,2.32.95,4.59.89,8.96.89,9.14,0,.32-.19.65-.44.81-.24.13-.43-.02-.42-.34,0-.04.05-4.41-.86-8.86-.2-.95-.41-1.71-.64-2.31-1.05.81-1.9.87-2.4.45-.5-.43-.57-1.33-.18-2.26.29-.7.72-1.19,1.17-1.33.68-.21,1.34.33,1.91,1.52.32-.32.65-.72,1-1.21.68-.95,1.21-1.9,1.6-2.77-.59-.87-.8-1.93-.63-2.86.15-.8.58-1.48,1.16-1.81s1-.15,1.16.47c.18.72-.04,2.04-.63,3.58.4.41.93.75,1.6.91.35.09.68.1,1,.06.57-1.84,1.23-3.15,1.91-3.72.45-.37.88-.39,1.17-.02.38.48.31,1.47-.18,2.47Z"/>
          </g>
          <path class="cls-20" d="m135.95,60.33v3.53c0,.73-.36,1.67-1.09,2.65-1.44,1.94-3.8,3.3-5.24,3.02-.76-.14-1.11-.71-1.07-1.49v-3.18c.08.59.45,1.01,1.07,1.13,1.44.28,3.8-1.08,5.24-3.02.73-.98,1.09-1.91,1.09-2.65Z"/>
        </g>
        <path class="cls-4" d="m129.2,64.24c-.54-.32-3.48-2-3.6-2.07-.39-.23-.59-.65-.59-1.18,0-4.44-6.82-2.33-6.82-13.36,0-2.5.51-5.14,1.38-7.67,1.26.73,2.89,1.67,3.63,2.1-.87,2.53-1.37,5.17-1.37,7.67,0,11.03,6.82,8.92,6.82,13.36,0,.51.18.91.55,1.15Z"/>
        <path class="cls-4" d="m129.7,64.43c-.18-.03-.33-.09-.46-.17.13.08.29.13.46.17Z"/>
      </g>
      <g>
        <path class="cls-1" d="m129.14,21.96c-.49.28-.89-.02-.89-.67v-6.81c0-.65.4-1.41.89-1.69.49-.28.89.02.89.67v6.81c0,.65-.4,1.41-.89,1.69Z"/>
        <path class="cls-1" d="m121.08,29.49c-.42.57-.97.69-1.21.27l-2.56-4.43c-.25-.42-.1-1.23.32-1.8s.97-.69,1.21-.27l2.56,4.43c.25.42.1,1.23-.32,1.8Z"/>
        <path class="cls-1" d="m115.17,40.77c-.24.71-.79,1.21-1.21,1.13l-4.43-.85c-.42-.08-.57-.72-.32-1.43.24-.71.79-1.21,1.21-1.13l4.43.85c.42.08.57.72.32,1.43Z"/>
        <path class="cls-1" d="m113.01,52.77c0,.65-.4,1.41-.89,1.69l-5.11,2.95c-.49.28-.89-.02-.89-.67s.4-1.41.89-1.69l5.11-2.95c.49-.28.89.02.89.67Z"/>
        <path class="cls-1" d="m115.17,62.28c.24.42.1,1.23-.32,1.8l-4.43,5.96c-.42.57-.97.69-1.21.27-.25-.42-.1-1.23.32-1.8l4.43-5.96c.42-.57.97-.69,1.21-.27Z"/>
        <path class="cls-1" d="m143.11,46.15c.25-.71.79-1.21,1.21-1.13l4.43.85c.42.08.57.72.32,1.43-.25.71-.79,1.21-1.21,1.13l-4.43-.85c-.42-.08-.57-.72-.32-1.43Z"/>
        <path class="cls-1" d="m145.27,34.15c0-.65.4-1.41.89-1.69l5.11-2.95c.49-.28.89.02.89.67s-.4,1.41-.89,1.69l-5.11,2.95c-.49.28-.89-.02-.89-.67Z"/>
        <path class="cls-1" d="m143.11,24.64c-.25-.42-.1-1.23.32-1.8l4.43-5.96c.42-.57.97-.69,1.21-.27s.1,1.23-.32,1.8l-4.43,5.96c-.42.57-.97.69-1.21.27Z"/>
        <path class="cls-1" d="m137.21,20.18c-.42-.08-.57-.72-.32-1.43l2.56-7.38c.25-.71.79-1.21,1.21-1.13s.57.72.32,1.43l-2.56,7.38c-.25.71-.79,1.21-1.21,1.13Z"/>
      </g>
    </g>
    <g id="Question_Icon" data-name="Question Icon">
      <g>
        <path class="cls-18" d="m130.44,309.13c.92-.53,1.71-.56,2.36-.1.65.47.97,1.3.97,2.49s-.32,2.4-.97,3.62c-.64,1.22-1.42,2.09-2.33,2.62-.91.52-1.68.55-2.32.06s-.96-1.32-.96-2.51.32-2.39.95-3.6c.63-1.21,1.39-2.07,2.29-2.58Z"/>
        <path class="cls-18" d="m126.82,291.6l-4.96,2.86c-.03-3.23.81-6.38,2.5-9.48,1.69-3.09,3.92-5.44,6.68-7.03,1.78-1.03,3.29-1.46,4.54-1.31,1.25.15,2.25.84,3,2.05.75,1.22,1.13,2.73,1.13,4.55,0,.99-.12,2.04-.36,3.14-.24,1.1-.62,2.3-1.14,3.61-.3.76-1.03,2.18-2.18,4.23-1.1,1.96-1.79,3.3-2.06,4.01-.28.71-.51,1.57-.7,2.59s-.31,2.35-.36,3.99l-5.13,2.96-.02-1.12c0-2.25.31-4.48.93-6.68.62-2.2,1.62-4.51,3.01-6.92,1.34-2.34,2.15-3.88,2.42-4.63.28-.75.42-1.52.42-2.31,0-1.08-.34-1.79-1.01-2.15-.68-.36-1.58-.21-2.72.45-1.16.67-2.11,1.68-2.86,3.02-.74,1.34-1.12,2.74-1.14,4.18Z"/>
      </g>
      <g>
        <g>
          <path class="cls-20" d="m136.27,312.05c.92-.53,1.71-.56,2.36-.1.65.47.97,1.3.97,2.49s-.32,2.4-.97,3.62c-.64,1.22-1.42,2.09-2.33,2.62-.91.52-1.68.55-2.32.06-.64-.48-.96-1.32-.96-2.51s.32-2.39.95-3.6c.63-1.21,1.39-2.07,2.29-2.58Z"/>
          <path class="cls-7" d="m134.21,320.88s-.01,0-.02,0c-.07-.04-3.06-1.77-3.66-2.11-.07-.04-.14-.08-.2-.13-.64-.48-.96-1.32-.96-2.51s.32-2.4.95-3.6c.04-.08.09-.17.14-.25l3.66,2.12c-.05.08-.09.16-.13.25-.63,1.21-.95,2.41-.95,3.6s.32,2.03.96,2.51c.07.05.14.1.21.14Z"/>
          <path class="cls-4" d="m138.49,311.85c-.62-.36-1.36-.3-2.21.19-.83.48-1.55,1.26-2.16,2.34l-3.66-2.12c.57-1.01,1.24-1.76,2.01-2.24.05-.03.1-.07.15-.1.35-.2.68-.33,1-.39.44-.08.84-.02,1.2.19,0,0,.1.06.25.14.74.42,2.9,1.68,3.41,1.97,0,0,.01,0,.02.01Z"/>
        </g>
        <g>
          <path class="cls-20" d="m132.66,294.53l-4.96,2.86c-.03-3.23.81-6.38,2.5-9.48,1.69-3.09,3.92-5.44,6.68-7.03,1.78-1.03,3.29-1.46,4.54-1.31,1.25.15,2.25.84,3,2.05.75,1.22,1.13,2.73,1.13,4.55,0,.99-.12,2.04-.36,3.14-.24,1.1-.62,2.3-1.14,3.61-.3.76-1.03,2.18-2.18,4.23-1.1,1.96-1.79,3.3-2.06,4.01-.28.71-.51,1.57-.7,2.59-.19,1.02-.31,2.35-.36,3.99l-5.13,2.96-.02-1.12c0-2.25.31-4.48.93-6.68.62-2.2,1.62-4.51,3.01-6.92,1.34-2.34,2.15-3.88,2.42-4.63.28-.75.42-1.52.42-2.31,0-1.08-.34-1.79-1.01-2.15-.68-.36-1.58-.21-2.72.45-1.16.67-2.11,1.68-2.86,3.02-.74,1.34-1.12,2.74-1.14,4.18Z"/>
          <path class="cls-7" d="m142.84,280.04c-.43-.24-.9-.4-1.41-.46-1.25-.15-2.76.28-4.54,1.31-2.76,1.59-4.99,3.94-6.68,7.03-.07.13-.14.26-.21.39l-3.66-2.12c.07-.13.14-.26.21-.39,1.69-3.09,3.92-5.43,6.68-7.03,1.78-1.03,3.29-1.46,4.54-1.31.54.07,1.03.23,1.47.49.59.35,3.18,1.84,3.61,2.08Z"/>
          <path class="cls-7" d="m139.61,292.16c-.41.86-1.1,2.13-2.06,3.81-1.39,2.42-2.39,4.72-3.01,6.92-.62,2.19-.92,4.41-.93,6.65v.03l.02,1.13-1.17-.67-2.5-1.44-.02-1.13c0-2.25.31-4.48.93-6.68.62-2.2,1.62-4.51,3.01-6.92.96-1.68,1.65-2.95,2.07-3.81l3.66,2.11Z"/>
          <path class="cls-4" d="m129.99,288.31c-1.55,2.97-2.32,6-2.29,9.09l-3.66-2.12c-.02-3.09.74-6.12,2.29-9.09l3.66,2.12Z"/>
          <path class="cls-4" d="m140.38,289.04c0,.79-.14,1.56-.42,2.31-.08.21-.2.48-.36.82l-3.66-2.11c.16-.33.28-.61.36-.82.23-.63.37-1.27.4-1.93,1.11-.63,2-.77,2.66-.41.67.36,1.01,1.08,1.01,2.15Z"/>
        </g>
      </g>
    </g>
  </g>
  <g id="Character">
    <g id="Character-2" data-name="Character">
      <path id="Line-3" data-name="Line" class="cls-7" d="m157.56,326.61c1.04,1.43,2.31,2.62,3.74,3.65,1.49,1.08,3.03,2.05,4.68,2.88,3.17,1.61,6.4,3.23,9.84,4.19,3.44.96,7.19,1.48,10.71.7,1.72-.38,3.37-1.06,4.74-2.18,1.48-1.2,2.24-2.84,2.54-4.7.29-1.78.17-3.67.87-5.36.54-1.3,1.57-2.3,2.77-3,2.96-1.72,6.45-1.39,9.57-.32,1.88.64,3.68,1.51,5.49,2.32,1.86.84,3.74,1.62,5.66,2.33,3.98,1.48,8.1,2.62,12.31,3.19,3.72.51,7.79.72,11.33-.79,2.92-1.24,5.48-4.24,5.29-7.56-.05-.92-.29-1.76-.73-2.57-.18-.34-.55-.68-.97-.62-.39.06-.54.45-.44.81.86,3.13-1.23,6.39-4,7.74-3.27,1.59-7.08,1.32-10.59.88-3.96-.5-7.83-1.55-11.58-2.89-1.84-.66-3.65-1.39-5.43-2.17-1.75-.77-3.49-1.58-5.29-2.23-3.26-1.17-6.81-1.86-10.17-.67-1.4.5-2.7,1.25-3.73,2.33-1.16,1.22-1.73,2.76-1.97,4.41-.25,1.71-.12,3.53-.78,5.17-.6,1.49-1.88,2.55-3.29,3.24-3.05,1.49-6.68,1.41-9.95.84-3.34-.58-6.44-1.79-9.53-3.13-3.2-1.39-6.56-2.77-9.21-5.1-.61-.53-1.19-1.08-1.73-1.68-.13-.14-.25.16-.18.27h0Z"/>
      <g id="Pencil">
        <g>
          <path class="cls-23" d="m270.15,274.58l-22.7,46.26c-.66,1.35-2.65,1.09-2.94-.38l-10.18-50.82,35.83,4.94Z"/>
          <path class="cls-7" d="m244.51,320.45c.29,1.47,2.28,1.73,2.94.38l4.43-9.03h0c-3.04,1.17-6.47.54-8.9-1.63l-.66-.59,2.18,10.87Z"/>
          <path class="cls-20" d="m262.27,54.06l-.61,4.73-.76,5.71-26.58,205.13c3.24,4.82,8.58,7.73,14.21,9.02,8.56,2,17.82.29,21.6-4.08l26.56-205.01,1.41-10.91c-1.31,7.01-37.05,2.47-35.83-4.59Z"/>
          <path class="cls-3" d="m262.27,54.06l-.61,4.73-.76,5.71-26.58,205.13c3.24,4.82,8.58,7.73,14.21,9.02,8.56,2,17.82.29,21.6-4.08l26.56-205.01,1.41-10.91c-1.31,7.01-37.05,2.47-35.83-4.59Z"/>
          <path class="cls-22" d="m259.88,72.06l-1.35,10.57c-.49,3.05,5.78,5.85,13.23,7.5,9.88,2.21,22,1,22.66-3.04l1.01-7.79.31-2.79c-.66,4.04-12.78,5.27-22.66,3.05-7.13-1.59-13.21-4.26-13.21-7.17v-.03c-.02-.1-.01-.19.01-.3Z"/>
          <path class="cls-20" d="m259.57,74.7c-1.16,7.08,34.71,11.53,35.87,4.45l1.39-10.57c-1.16,7.08-37.02,2.63-35.86-4.45l-1.39,10.57Z"/>
          <path class="cls-22" d="m262.27,54.06l-1.37,10.44c-1.19,6.94,33.38,11.53,35.79,5.06.06-.11.09-.25.11-.39l1.3-10.52c-1.31,7.01-37.05,2.47-35.83-4.59Z"/>
          <path class="cls-21" d="m296.69,69.56l1.41-10.91c-.59,3.17-8.21,4.62-16.36,3.89l-28.07,216.94-6.21,41.36,22.7-46.26h-.02s0,0,0,0l26.56-205.01Z"/>
          <path class="cls-17" d="m303.96,13.48c.03-.12.07-.23.08-.35.58-4.59-6.97-9.33-16.87-10.58-9.89-1.25-18.37,1.44-18.97,6.02,0,0,0,0,0,.01l-5.93,45.49c-.51,3.02,5.68,5.83,13.06,7.5,9.87,2.25,22.04,1.1,22.77-2.92t.03-.04l5.78-44.44c.03-.2.04-.4.05-.61,0-.03,0-.06,0-.09Z"/>
          <path class="cls-21" d="m289.29,2.87l-7.56,59.67c8.08.66,15.78-.72,16.36-3.89t.03-.04l5.78-44.44c.03-.2.04-.4.05-.61,0-.03,0-.06,0-.09.03-.12.07-.23.08-.35.54-4.26-5.92-8.63-14.75-10.25Z"/>
          <path class="cls-23" d="m304.04,13.12c-.58,4.59-9.08,7.29-18.98,6.04-9.9-1.25-17.45-5.99-16.87-10.58.58-4.59,9.08-7.29,18.98-6.04,9.9,1.25,17.45,5.99,16.87,10.58Z"/>
        </g>
      </g>
    </g>
    <g id="Idea">
      <g id="Idea-2" data-name="Idea">
        <g id="Light">
          <g>
            <path class="cls-4" d="m372.4,36.88c-.51,1.1-1.81,1.59-2.91,1.08-1.1-.51-1.59-1.81-1.08-2.91.51-1.1,1.81-1.59,2.91-1.08,1.1.51,1.59,1.81,1.08,2.91Z"/>
            <path class="cls-7" d="m367.95,35c-.97-1.37-.41-2.61,1.27-2.77,1.67-.16,3.82.82,4.8,2.19.97,1.37.41,2.61-1.27,2.77s-3.82-.82-4.8-2.19Z"/>
            <path class="cls-4" d="m368.2,34.25c-1-1.41-.42-2.69,1.31-2.85,1.73-.16,3.94.85,4.94,2.26s.42,2.69-1.31,2.85c-1.73.16-3.94-.85-4.94-2.26Z"/>
            <path class="cls-7" d="m368.47,33.47c-1.04-1.46-.43-2.77,1.35-2.94,1.78-.17,4.06.87,5.09,2.33s.43,2.77-1.35,2.94c-1.78.17-4.06-.87-5.09-2.33Z"/>
            <path class="cls-4" d="m368.74,32.67c-1.07-1.5-.45-2.86,1.39-3.03,1.83-.17,4.18.9,5.25,2.4,1.07,1.5.45,2.86-1.39,3.03s-4.18-.9-5.25-2.4Z"/>
            <path class="cls-7" d="m369.05,31.84c-1.09-1.53-.46-2.92,1.42-3.09,1.87-.18,4.27.92,5.36,2.45,1.09,1.53.46,2.92-1.42,3.09-1.87.18-4.27-.92-5.36-2.45Z"/>
            <path class="cls-20" d="m382.39,9.77c-5.26-2.41-11.48-.09-13.88,5.17-3.46,7.56,2.2,11.67.81,14.72-.22.49-.12,1.12.35,1.78.94,1.33,3.02,2.28,4.65,2.13.81-.08,1.35-.42,1.58-.9h0c1.39-3.05,8.21-1.45,11.67-9.01,2.41-5.26.09-11.48-5.17-13.88Z"/>
            <g class="cls-5">
              <path class="cls-2" d="m382.39,9.77c-5.26-2.41-11.48-.09-13.88,5.17-3.46,7.56,2.2,11.67.81,14.72-.22.49-.12,1.12.35,1.78.94,1.33,3.02,2.28,4.65,2.13.81-.08,1.35-.42,1.58-.9h0c1.39-3.05,8.21-1.45,11.67-9.01,2.41-5.26.09-11.48-5.17-13.88Z"/>
            </g>
            <path class="cls-20" d="m370.43,31.29c-.71-1-.3-1.9.92-2.02,1.22-.12,2.78.6,3.49,1.6.71,1,.3,1.9-.92,2.02-1.22.12-2.78-.6-3.49-1.6Z"/>
          </g>
          <path class="cls-2" d="m374.02,31.43c-.18-.08-.26-.29-.18-.46.04-.1,1.12-2.57,3.16-5.14.39-.5.79-.93,1.17-1.3-.22-.22-.44-.48-.64-.78-.36-.55-.62-1.11-.78-1.64-.51.23-1.1.4-1.75.49-.37.05-.7.05-1.01.03-.03.53-.1,1.11-.22,1.73-.61,3.22-1.77,5.65-1.82,5.75-.09.18-.28.24-.47.17-.18-.09-.25-.3-.17-.47.01-.02,1.17-2.45,1.76-5.57.13-.66.19-1.24.21-1.73-.84-.25-1.37-.78-1.56-1.35-.19-.57,0-1.13.47-1.4.36-.2.74-.19,1.05.03.46.33.72,1.08.76,2.13.27.03.58.03.91-.02.65-.08,1.22-.26,1.68-.49-.13-.88.01-1.63.36-2.03.3-.35.73-.44,1.16-.24.43.2.64.59.57,1.04-.08.53-.55,1.12-1.3,1.6.13.5.37,1.04.73,1.59.19.28.39.51.59.7.82-.66,1.55-.95,2.11-.82.37.09.63.37.71.77.11.53-.19,1.04-.75,1.27-.56.23-1.31.18-2.04-.3-.36.33-.75.76-1.17,1.29-1.98,2.5-3.05,4.95-3.06,4.98-.08.18-.29.26-.47.19,0,0,0,0,0,0Zm-1.24-11.11c-.05-.03-.13-.03-.24.04-.26.14-.17.46-.14.55.11.32.4.63.88.82-.05-.79-.25-1.24-.45-1.38-.01,0-.03-.02-.04-.03Zm6.53,4.17c.45.24.88.26,1.19.13.09-.04.38-.18.33-.47-.03-.17-.11-.2-.18-.22-.23-.06-.7.09-1.34.56Zm-1.49-4.72c-.16-.08-.25-.03-.33.06-.18.21-.28.63-.24,1.17.44-.32.69-.68.73-.95.02-.12,0-.21-.17-.29Z"/>
        </g>
        <g>
          <path class="cls-18" d="m384.11,6.17c-.06,0-.12-.03-.18-.05-.34-.16-.5-.56-.34-.9l1.46-3.25c.16-.35.56-.5.9-.34.34.15.5.56.34.9l-1.46,3.25c-.13.29-.43.44-.73.4Z"/>
          <path class="cls-18" d="m376.33,4.91c-.3-.05-.54-.29-.57-.61l-.36-3.55c-.04-.38.24-.71.61-.75.38-.04.71.24.75.61l.36,3.55c.04.38-.24.71-.61.75-.06,0-.12,0-.18,0Z"/>
          <path class="cls-18" d="m368.96,7.7c-.17-.03-.34-.12-.45-.28l-2.09-2.89c-.22-.31-.15-.73.15-.96.31-.22.73-.15.95.15l2.09,2.89c.22.31.15.73-.15.95-.15.11-.33.15-.51.12Z"/>
          <path class="cls-18" d="m363.98,13.81c-.06,0-.12-.03-.18-.05l-3.25-1.46c-.34-.16-.5-.56-.34-.9.16-.35.56-.5.9-.34l3.25,1.46c.34.16.5.56.34.9-.13.29-.43.44-.73.4Z"/>
          <path class="cls-18" d="m388.85,35.3c-.17-.03-.34-.12-.45-.28l-2.09-2.89c-.22-.31-.15-.73.15-.96.31-.22.73-.15.96.15l2.09,2.89c.22.31.15.73-.15.96-.15.11-.33.15-.51.12Z"/>
          <path class="cls-18" d="m395,27.76c-.06,0-.12-.03-.18-.05l-3.25-1.46c-.34-.15-.5-.56-.34-.9.16-.35.56-.5.9-.34l3.25,1.46c.34.16.5.56.34.9-.13.29-.43.44-.73.4Z"/>
          <path class="cls-18" d="m393.01,18.52c-.3-.05-.54-.29-.57-.61-.04-.38.24-.71.61-.75l3.55-.36c.38-.04.71.24.75.61.04.38-.24.71-.61.75l-3.55.36c-.06,0-.12,0-.18,0Z"/>
          <path class="cls-18" d="m390.21,11.15c-.17-.03-.34-.12-.45-.28-.22-.31-.15-.73.15-.96l2.89-2.09c.31-.22.73-.15.95.15.22.31.15.73-.15.96l-2.89,2.09c-.15.11-.33.15-.51.12Z"/>
        </g>
      </g>
      <g id="Shine">
        <path class="cls-20" d="m379.83,51.77c-.21-.11-.31-.36-.22-.58l.17-.41c.44-1.07.04-2.29-.95-2.89l-.38-.23c-.21-.12-.28-.39-.17-.6.11-.21.36-.31.58-.22l.41.17h0c1.07.44,2.29.04,2.89-.95l.23-.38c.12-.21.38-.28.6-.17h0c.21.11.31.36.22.58l-.17.41c-.44,1.07-.04,2.29.95,2.89l.38.23c.21.12.28.39.17.6-.11.21-.36.31-.58.22l-.41-.17c-1.07-.44-2.29-.04-2.89.95l-.23.38c-.12.21-.39.28-.6.17h0Zm.52-3.67c.31.48.49,1.03.53,1.6.48-.31,1.03-.49,1.6-.53-.31-.48-.49-1.03-.53-1.6-.48.31-1.03.49-1.6.53Z"/>
        <path class="cls-20" d="m392.61,50.22c-1.45-.73-2.03-2.5-1.3-3.95.73-1.45,2.5-2.03,3.95-1.3,1.45.73,2.03,2.5,1.3,3.95-.73,1.45-2.5,2.03-3.95,1.3Zm2.24-4.43c-1-.5-2.22-.1-2.72.9-.5,1-.1,2.22.89,2.72s2.22.1,2.72-.9c.5-1,.1-2.22-.89-2.72Z"/>
        <g>
          <path class="cls-20" d="m391.14,58.56c-.23-.11-.32-.39-.2-.62l.69-1.37c.11-.23.39-.32.62-.2.23.11.32.39.2.62l-.69,1.37c-.11.23-.39.32-.62.2Z"/>
          <path class="cls-20" d="m389.91,58.97l-1.37-.69c-.23-.11-.32-.39-.2-.62.11-.23.39-.32.62-.2l1.37.69c.23.11.32.39.2.62-.11.23-.39.32-.62.2Z"/>
          <path class="cls-20" d="m389.58,61.64c-.23-.11-.32-.39-.2-.62l.69-1.37c.11-.23.39-.32.62-.2.23.11.32.39.2.62l-.69,1.37c-.11.23-.39.32-.62.2Z"/>
          <path class="cls-20" d="m392.99,60.52l-1.37-.69c-.23-.11-.32-.39-.2-.62.11-.23.39-.32.62-.2l1.37.69c.23.11.32.39.2.62-.11.23-.39.32-.62.2Z"/>
        </g>
      </g>
      <g id="Shine-2" data-name="Shine">
        <path class="cls-20" d="m351.65,10.25c-.23.08-.48-.03-.57-.25l-.18-.41c-.46-1.06-1.61-1.62-2.74-1.33l-.43.11c-.23.06-.47-.07-.55-.29-.08-.23.03-.48.25-.57l.41-.18h0c1.06-.46,1.62-1.61,1.33-2.74l-.11-.43c-.06-.23.07-.47.29-.55s.48.03.57.25l.18.41c.46,1.06,1.61,1.62,2.74,1.33l.43-.11c.23-.06.47.07.55.29.08.23-.03.48-.25.57l-.41.18c-1.06.46-1.62,1.61-1.33,2.74l.11.43c.06.23-.07.47-.29.55Zm-2.27-2.93c.56.11,1.08.36,1.51.73.11-.56.36-1.08.73-1.51-.56-.11-1.08-.36-1.51-.73-.11.56-.36,1.08-.73,1.51Z"/>
        <path class="cls-20" d="m349.81,21.84c-1.53.53-3.21-.28-3.74-1.81-.53-1.53.28-3.21,1.81-3.74,1.53-.53,3.21.28,3.74,1.81.53,1.53-.28,3.21-1.82,3.74Zm-1.63-4.69c-1.05.37-1.61,1.52-1.25,2.58.37,1.05,1.52,1.61,2.58,1.25,1.06-.37,1.62-1.52,1.25-2.58-.37-1.06-1.52-1.62-2.58-1.25Z"/>
        <g>
          <path class="cls-20" d="m337.02,12.86c-.24.08-.5-.04-.58-.28l-.5-1.45c-.08-.24.04-.5.28-.58s.5.04.58.28l.5,1.45c.08.24-.04.5-.28.58Z"/>
          <path class="cls-20" d="m336.45,14.02l-1.45.5c-.24.08-.5-.04-.58-.28-.08-.24.04-.5.28-.58l1.45-.5c.24-.08.5.04.58.28.08.24-.04.5-.28.58Z"/>
          <path class="cls-20" d="m338.15,16.12c-.24.08-.5-.04-.58-.28l-.5-1.45c-.08-.24.04-.5.28-.58.24-.08.5.04.58.28l.5,1.45c.08.24-.04.5-.28.58Z"/>
          <path class="cls-20" d="m339.71,12.89l-1.45.5c-.24.08-.5-.04-.58-.28s.04-.5.28-.58l1.45-.5c.24-.08.5.04.58.28s-.04.5-.28.58Z"/>
        </g>
      </g>
    </g>
  </g>
</svg>
