<?xml version="1.0" encoding="UTF-8"?>
<svg xmlns="http://www.w3.org/2000/svg"  x="0px"
	 y="0px" viewBox="-70 -75 550 550" style="enable-background:new 0 0 500 500;" xml:space="preserve">
  <defs>
    <style>
      .cls-1 {
        stroke-dasharray: 0 0 1.97 1.97;
      }

      .cls-1, .cls-2, .cls-3, .cls-4, .cls-5, .cls-6, .cls-7 {
        stroke: #263238;
        stroke-linecap: round;
        stroke-linejoin: round;
      }

      .cls-1, .cls-2, .cls-3, .cls-6 {
        stroke-width: 1.02px;
      }

      .cls-1, .cls-3, .cls-5, .cls-6 {
        fill: none;
      }

      .cls-2, .cls-4, .cls-8, .cls-9 {
        fill: #fff;
      }

      .cls-4, .cls-7 {
        stroke-width: .83px;
      }

      .cls-8 {
        opacity: .5;
      }

      .cls-9 {
        opacity: .7;
      }

      .cls-5 {
        stroke-width: 1.03px;
      }

      .cls-6 {
        stroke-dasharray: 0 0 2.02 2.02;
      }

      .cls-7, .cls-10 {
        fill: #09182F;
      }

      .cls-11 {
        fill: #00437D;
      }
    </style>
  </defs>
  <g id="Background_Simple" data-name="Background Simple">
    <g>
      <path class="cls-11" d="m29.37,203.12s11.67,62.89,70.86,96.97c59.18,34.08,132.75,25.95,192.55,20.93,59.8-5.02,100.15-45.46,99.28-97.15-.87-51.69-48.36-59.66-81.69-113.58-33.33-53.91-34.03-73.2-91.36-100.74-57.32-27.54-135.22,6.61-168.54,73.85-33.32,67.24-21.09,119.71-21.09,119.71Z"/>
      <path class="cls-9" d="m29.37,203.12s11.67,62.89,70.86,96.97c59.18,34.08,132.75,25.95,192.55,20.93,59.8-5.02,100.15-45.46,99.28-97.15-.87-51.69-48.36-59.66-81.69-113.58-33.33-53.91-34.03-73.2-91.36-100.74-57.32-27.54-135.22,6.61-168.54,73.85-33.32,67.24-21.09,119.71-21.09,119.71Z"/>
    </g>
  </g>
  <g id="Floor">
    <g>
      <ellipse class="cls-11" cx="170.56" cy="373.36" rx="155.18" ry="11.22"/>
      <ellipse class="cls-8" cx="170.56" cy="373.36" rx="155.18" ry="11.22"/>
    </g>
  </g>
  <g id="Graphics">
    <g>
      <rect class="cls-3" x="123.38" y="14.08" width="253.68" height="328.35" rx="10" ry="10"/>
      <g>
        <g>
          <polyline class="cls-3" points="229.89 104.31 229.89 105.34 228.87 105.34"/>
          <line class="cls-6" x1="226.85" y1="105.34" x2="167.36" y2="105.34"/>
          <polyline class="cls-3" points="166.35 105.34 165.33 105.34 165.33 104.31"/>
          <line class="cls-1" x1="165.33" y1="102.34" x2="165.33" y2="56.07"/>
          <polyline class="cls-3" points="165.33 55.09 165.33 54.06 166.35 54.06"/>
          <line class="cls-6" x1="168.37" y1="54.06" x2="227.86" y2="54.06"/>
          <polyline class="cls-3" points="228.87 54.06 229.89 54.06 229.89 55.09"/>
          <line class="cls-1" x1="229.89" y1="57.06" x2="229.89" y2="103.33"/>
        </g>
        <rect class="cls-2" x="175.64" y="62.25" width="43.95" height="34.9"/>
        <line class="cls-3" x1="173.05" y1="59.66" x2="157.97" y2="48.03"/>
        <line class="cls-3" x1="222.6" y1="98.87" x2="235.53" y2="110.08"/>
        <polyline class="cls-3" points="157.38 51.86 156.93 46.92 162.1 46.92"/>
        <polyline class="cls-3" points="235.88 105.4 236.78 110.8 230.48 111.02"/>
      </g>
      <g>
        <rect class="cls-10" x="252.67" y="236.94" width="21.34" height="7.7"/>
        <polygon class="cls-10" points="282.68 240.79 269 232.89 269 248.69 282.68 240.79"/>
      </g>
      <g>
        <g>
          <rect class="cls-7" x="181.27" y="183.83" width="62.94" height="122.84" rx="6.93" ry="6.93"/>
          <rect class="cls-4" x="184.07" y="192.17" width="57.35" height="107.2"/>
        </g>
        <rect class="cls-3" x="186.21" y="233.69" width="53.17" height="6.65"/>
        <rect class="cls-3" x="187.96" y="198.01" width="25.54" height="30.43"/>
        <line class="cls-3" x1="187.96" y1="198.01" x2="213.5" y2="228.44"/>
        <polyline class="cls-3" points="187.26 287.21 187.26 243.83 239.03 243.83 239.03 286.86"/>
      </g>
      <g>
        <g>
          <rect class="cls-7" x="287.13" y="183.83" width="62.94" height="122.84" rx="6.93" ry="6.93"/>
          <rect class="cls-4" x="289.93" y="192.17" width="57.35" height="107.2"/>
        </g>
        <rect class="cls-3" x="292.9" y="197.31" width="51.77" height="56.67"/>
        <line class="cls-3" x1="292.9" y1="259.23" x2="344.67" y2="259.23"/>
        <line class="cls-3" x1="292.9" y1="263.42" x2="344.67" y2="263.42"/>
        <line class="cls-3" x1="292.9" y1="267.62" x2="344.67" y2="267.62"/>
        <line class="cls-3" x1="292.9" y1="271.82" x2="344.67" y2="271.82"/>
        <line class="cls-3" x1="292.9" y1="276.02" x2="344.67" y2="276.02"/>
        <line class="cls-3" x1="292.9" y1="280.21" x2="344.67" y2="280.21"/>
        <line class="cls-3" x1="292.9" y1="284.41" x2="344.67" y2="284.41"/>
        <line class="cls-3" x1="292.9" y1="253.98" x2="344.67" y2="197.31"/>
      </g>
      <g>
        <rect class="cls-7" x="287.13" y="42.82" width="62.94" height="122.84" rx="6.93" ry="6.93"/>
        <rect class="cls-4" x="289.93" y="51.16" width="57.35" height="107.2"/>
      </g>
      <g>
        <polyline class="cls-3" points="223.71 180.17 223.71 147.5 269.68 147.5"/>
        <polygon class="cls-10" points="268.18 152.6 277.02 147.5 268.18 142.4 268.18 152.6"/>
      </g>
      <g>
        <line class="cls-3" x1="317.43" y1="179.31" x2="317.43" y2="154.24"/>
        <polygon class="cls-10" points="322.53 155.73 317.43 146.9 312.33 155.73 322.53 155.73"/>
      </g>
      <g>
        <line class="cls-3" x1="293.73" y1="317.85" x2="316.92" y2="317.85"/>
        <line class="cls-3" x1="293.73" y1="323.07" x2="316.92" y2="323.07"/>
        <line class="cls-3" x1="293.73" y1="328.29" x2="316.92" y2="328.29"/>
      </g>
      <g>
        <line class="cls-3" x1="237.5" y1="317.85" x2="260.69" y2="317.85"/>
        <line class="cls-3" x1="237.5" y1="323.07" x2="260.69" y2="323.07"/>
        <line class="cls-3" x1="237.5" y1="328.29" x2="260.69" y2="328.29"/>
      </g>
      <g>
        <line class="cls-3" x1="231.12" y1="157.85" x2="254.31" y2="157.85"/>
        <line class="cls-3" x1="231.12" y1="163.07" x2="254.31" y2="163.07"/>
        <line class="cls-3" x1="231.12" y1="168.29" x2="254.31" y2="168.29"/>
      </g>
      <g>
        <line class="cls-3" x1="248.51" y1="94.66" x2="271.7" y2="94.66"/>
        <line class="cls-3" x1="248.51" y1="99.88" x2="271.7" y2="99.88"/>
        <line class="cls-3" x1="248.51" y1="105.1" x2="271.7" y2="105.1"/>
      </g>
      <g>
        <line class="cls-3" x1="165.04" y1="112.63" x2="188.22" y2="112.63"/>
        <line class="cls-3" x1="165.04" y1="117.85" x2="188.22" y2="117.85"/>
        <line class="cls-3" x1="165.04" y1="123.07" x2="188.22" y2="123.07"/>
      </g>
    </g>
  </g>
  <g id="Plants">
    <g>
      <g>
        <g>
          <g>
            <path class="cls-11" d="m51.9,189.62s0-4.33-6.06-10.39c-6.06-6.06-9.95-9.52-9.95-9.52,0,0-3.03,9.95,2.6,16.01,5.63,6.06,13.41,11.68,13.41,11.68v-7.79Z"/>
            <path class="cls-11" d="m43.11,216.64s0-4.33-6.06-10.39c-6.06-6.06-9.95-9.52-9.95-9.52,0,0-3.03,9.95,2.6,16.01,5.63,6.06,13.41,11.68,13.41,11.68v-7.79Z"/>
            <path class="cls-11" d="m51.52,196.99s.46-4.3,7.12-9.69c6.66-5.38,10.9-8.42,10.9-8.42,0,0,1.96,10.22-4.27,15.65-6.23,5.43-14.57,10.2-14.57,10.2l.82-7.75Z"/>
            <path class="cls-11" d="m40.9,228.9s.91-4.23,8.1-8.89c7.19-4.65,11.73-7.22,11.73-7.22,0,0,.88,10.37-5.89,15.11-6.77,4.74-15.57,8.61-15.57,8.61l1.63-7.62Z"/>
            <path class="cls-11" d="m42.9,263.7s0-4.33,6.06-10.39c6.06-6.06,9.95-9.52,9.95-9.52,0,0,3.03,9.95-2.6,16.01-5.63,6.06-13.41,11.68-13.41,11.68v-7.79Z"/>
            <path class="cls-11" d="m42.79,272.2s.61-4.28-4.52-11.14c-5.14-6.86-8.5-10.84-8.5-10.84,0,0-4.41,9.42.29,16.22s11.62,13.47,11.62,13.47l1.11-7.71Z"/>
            <path class="cls-11" d="m36.82,297.37s0-4.33,6.06-10.39c6.06-6.06,9.95-9.52,9.95-9.52,0,0,3.03,9.95-2.6,16.01-5.63,6.06-13.41,11.68-13.41,11.68v-7.79Z"/>
            <path class="cls-11" d="m40.87,320.19s-1.1-4.19,3.23-11.58c4.33-7.4,7.22-11.73,7.22-11.73,0,0,5.45,8.86,1.54,16.15-3.91,7.29-10.02,14.7-10.02,14.7l-1.97-7.54Z"/>
          </g>
          <path class="cls-5" d="m52.45,188.51c-.35,4.63-.88,9.41-1.66,13.44-2.39,12.37-8.38,20.36-10.78,31.53-2.39,11.18,4.48,25.57,2.64,39.93-1.84,14.35-7.43,22.34-5.83,31.92,1.6,9.58,9.98,35.52,9.98,35.52"/>
          <line class="cls-5" x1="51.46" y1="199.86" x2="57.99" y2="194.85"/>
          <line class="cls-5" x1="51.76" y1="194.09" x2="49.03" y2="189.24"/>
          <path class="cls-5" d="m40.38,232.96s5.47-4.1,11.08-8.2"/>
          <path class="cls-5" d="m43.11,224.43s-4.55-8.93-9.72-14.85"/>
          <path class="cls-5" d="m43.11,269.86s4.25-8.35,11.69-15.64"/>
          <path class="cls-5" d="m42.05,275.93s-2.73-6.53-5.92-11.24c-3.19-4.71-3.64-5.31-3.64-5.31"/>
          <path class="cls-5" d="m36.82,305.32s2.19-5.55,4.92-9.95c2.73-4.4,6.38-8.35,6.38-8.35"/>
          <path class="cls-5" d="m42.84,327.73s-.64-5.18,1.64-9.59c2.28-4.4,4.86-10.17,5.92-12.45"/>
        </g>
        <g>
          <g>
            <path class="cls-11" d="m12.23,247.43s-.47-2.71,2.67-7.17c3.14-4.46,5.21-7.05,5.21-7.05,0,0,2.98,5.91.11,10.32-2.87,4.41-7.14,8.78-7.14,8.78l-.85-4.88Z"/>
            <path class="cls-11" d="m20.68,263.42s-.47-2.71,2.67-7.17c3.14-4.46,5.21-7.05,5.21-7.05,0,0,2.98,5.91.11,10.32-2.87,4.41-7.14,8.78-7.14,8.78l-.85-4.88Z"/>
            <path class="cls-11" d="m13.27,252.01s-.75-2.65-5.52-5.3C2.99,244.05,0,242.61,0,242.61c0,0-.12,6.62,4.38,9.35,4.5,2.73,10.25,4.81,10.25,4.81l-1.36-4.77Z"/>
            <path class="cls-11" d="m23.39,270.87s-1.03-2.55-6.04-4.69c-5.02-2.14-8.14-3.26-8.14-3.26,0,0,.58,6.6,5.34,8.84s10.7,3.71,10.7,3.71l-1.85-4.6Z"/>
            <path class="cls-11" d="m25.92,292.91s-.47-2.71-4.93-5.85c-4.46-3.14-7.27-4.89-7.27-4.89,0,0-.82,6.57,3.37,9.76,4.19,3.19,9.68,5.87,9.68,5.87l-.85-4.88Z"/>
            <path class="cls-11" d="m26.9,298.22s-.85-2.62,1.63-7.48c2.48-4.86,4.15-7.72,4.15-7.72,0,0,3.79,5.43,1.58,10.2-2.21,4.77-5.82,9.71-5.82,9.71l-1.53-4.71Z"/>
            <path class="cls-11" d="m34.51,320.11s.31-2.74,4.58-6.13c4.27-3.39,6.98-5.3,6.98-5.3,0,0,1.19,6.51-2.8,9.93-4,3.42-9.33,6.41-9.33,6.41l.57-4.92Z"/>
            <path class="cls-11" d="m33.38,313.36s-.47-2.71-4.93-5.85c-4.46-3.14-7.27-4.89-7.27-4.89,0,0-.82,6.57,3.37,9.76,4.19,3.19,9.68,5.87,9.68,5.87l-.85-4.88Z"/>
            <path class="cls-11" d="m33.32,328.11s.23-2.74-3.28-6.91c-3.52-4.17-5.8-6.57-5.8-6.57,0,0-2.46,6.15.79,10.29,3.24,4.14,7.88,8.13,7.88,8.13l.42-4.94Z"/>
          </g>
          <path class="cls-5" d="m11.76,246.79c.72,2.86,1.57,5.81,2.5,8.25,2.84,7.5,7.47,11.85,10.18,18.6s-.03,16.52,2.68,25.32c2.71,8.8,7.08,13.2,7.12,19.38.04,6.18-2.4,23.36-2.4,23.36"/>
          <line class="cls-5" x1="13.62" y1="253.81" x2="8.98" y2="251.37"/>
          <line class="cls-5" x1="12.8" y1="250.22" x2="13.99" y2="246.88"/>
          <path class="cls-5" d="m24.16,273.36s-3.87-1.98-7.84-3.94"/>
          <path class="cls-5" d="m21.52,268.31s1.89-6.09,4.48-10.37"/>
          <path class="cls-5" d="m26.45,296.79s-3.57-4.78-9.03-8.54"/>
          <path class="cls-5" d="m27.78,300.48s1-4.39,2.49-7.69c1.49-3.3,1.71-3.73,1.71-3.73"/>
          <path class="cls-5" d="m34.04,323.03s3.07-3.77,4.99-5.18c1.91-1.41,3.24-2.82,3.24-2.82"/>
          <path class="cls-5" d="m34.25,318.35s-1.98-3.24-4.17-5.71c-2.19-2.46-4.91-4.54-4.91-4.54"/>
          <path class="cls-5" d="m32.91,333.05s-.16-3.32-2.07-5.83c-1.91-2.51-4.15-5.85-5.06-7.16"/>
        </g>
      </g>
      <g>
        <path class="cls-10" d="m19.47,338.71h39.63v29.81c0,1.68-1.36,3.04-3.04,3.04H22.51c-1.68,0-3.04-1.36-3.04-3.04v-29.81h0Z"/>
        <path class="cls-10" d="m58.75,343.88H19.47c-1.71,0-3.1-1.39-3.1-3.1h0c0-1.71,1.39-3.1,3.1-3.1h39.29c1.71,0,3.1,1.39,3.1,3.1h0c0,1.71-1.39,3.1-3.1,3.1Z"/>
      </g>
    </g>
  </g>
</svg>